<?xml version="1.0" encoding="UTF-8" standalone="no"?>
<!-- Created with Inkscape (http://www.inkscape.org/) -->

<svg
   xmlns:dc="http://purl.org/dc/elements/1.1/"
   xmlns:cc="http://creativecommons.org/ns#"
   xmlns:rdf="http://www.w3.org/1999/02/22-rdf-syntax-ns#"
   xmlns:svg="http://www.w3.org/2000/svg"
   xmlns="http://www.w3.org/2000/svg"
   xmlns:sodipodi="http://sodipodi.sourceforge.net/DTD/sodipodi-0.dtd"
   xmlns:inkscape="http://www.inkscape.org/namespaces/inkscape"
   width="36.375637mm"
   height="16.9753mm"
   viewBox="0 0 36.375637 16.975299"
   version="1.1"
   id="svg8"
   inkscape:version="0.92.3 (2405546, 2018-03-11)"
   sodipodi:docname="ujian.svg">
  <defs
     id="defs2" />
  <sodipodi:namedview
     id="base"
     pagecolor="#ffffff"
     bordercolor="#666666"
     borderopacity="1.0"
     inkscape:pageopacity="0.0"
     inkscape:pageshadow="2"
     inkscape:zoom="2.1354885"
     inkscape:cx="33.453299"
     inkscape:cy="21.43693"
     inkscape:document-units="mm"
     inkscape:current-layer="layer1"
     showgrid="false"
     fit-margin-top="0"
     fit-margin-left="0"
     fit-margin-right="0"
     fit-margin-bottom="0"
     showguides="true"
     inkscape:guide-bbox="true"
     inkscape:window-width="1366"
     inkscape:window-height="740"
     inkscape:window-x="0"
     inkscape:window-y="0"
     inkscape:window-maximized="1" />
  <metadata
     id="metadata5">
    <rdf:RDF>
      <cc:Work
         rdf:about="">
        <dc:format>image/svg+xml</dc:format>
        <dc:type
           rdf:resource="http://purl.org/dc/dcmitype/StillImage" />
        <dc:title></dc:title>
      </cc:Work>
    </rdf:RDF>
  </metadata>
  <g
     inkscape:label="Layer 1"
     inkscape:groupmode="layer"
     id="layer1"
     transform="translate(-41.223182,-249.66828)">
    <rect
       style="opacity:1;fill:#ff9800;fill-opacity:1;stroke:#ffffff;stroke-width:0.21706471;stroke-linecap:round;stroke-miterlimit:4;stroke-dasharray:none;stroke-dashoffset:0;stroke-opacity:1;paint-order:fill markers stroke"
       id="rect815"
       width="36.158573"
       height="16.758236"
       x="41.331715"
       y="249.77681" />
    <g
       id="g891"
       transform="translate(-0.02576201,0.52916891)"
       style="fill:#ffffff">
      <path
         style="fill:#ffffff;stroke-width:0.01338284"
         inkscape:connector-curvature="0"
         d="m 54.799434,258.81698 0.428251,-0.42824 c 0.06692,-0.0669 0.183345,-0.02 0.183345,0.0763 v 1.94587 c 0,0.35464 -0.287731,0.64237 -0.642377,0.64237 h -4.71076 c -0.354645,0 -0.642376,-0.28773 -0.642376,-0.64237 v -4.71077 c 0,-0.35464 0.287731,-0.64237 0.642376,-0.64237 H 53.7181 c 0.09502,0 0.143197,0.11509 0.07628,0.18334 l -0.428251,0.42825 c -0.02007,0.02 -0.04684,0.0308 -0.07628,0.0308 h -3.231955 v 4.71076 h 4.710761 v -1.51896 c 0,-0.0281 0.0107,-0.0548 0.03078,-0.0749 z m 2.095753,-2.70065 -3.514334,3.51433 -1.209809,0.13383 c -0.350631,0.0388 -0.649068,-0.25695 -0.610258,-0.61026 l 0.133829,-1.20981 3.514334,-3.51433 c 0.306467,-0.30647 0.801632,-0.30647 1.106761,0 l 0.578139,0.57814 c 0.306466,0.30647 0.306466,0.80297 0.0014,1.1081 z m -1.322225,0.41353 -0.777543,-0.77754 -2.486531,2.48787 -0.0977,0.87389 0.8739,-0.0977 z m 0.867208,-1.06661 -0.578138,-0.57815 c -0.05487,-0.0548 -0.144535,-0.0548 -0.198067,0 l -0.413529,0.41354 0.777543,0.77754 0.41353,-0.41353 c 0.05353,-0.0563 0.05353,-0.14454 -0.0014,-0.1994 z"
         id="path890" />
      <text
         id="text868"
         y="259.59103"
         x="57.835327"
         style="font-style:normal;font-variant:normal;font-weight:normal;font-stretch:normal;font-size:4.23333311px;line-height:1.25;font-family:Ubuntu;-inkscape-font-specification:Ubuntu;letter-spacing:0px;word-spacing:0px;fill:#ffffff;fill-opacity:1;stroke:none;stroke-width:0.26458332"
         xml:space="preserve"><tspan
           style="font-style:normal;font-variant:normal;font-weight:normal;font-stretch:normal;font-family:Ubuntu;-inkscape-font-specification:Ubuntu;stroke-width:0.26458332;fill:#ffffff"
           y="259.59103"
           x="57.835327"
           id="tspan866"
           sodipodi:role="line">UJIAN</tspan></text>
    </g>
  </g>
</svg>
